PathFileType	3	(X/Y/Z)	D:\Vicon Database\Healthy Subjects\S0040\Jan. 30, 2020\Force Plate Walk 10.trc
DataRate	CameraRate	NumFrames	NumMarkers	Units	OrigDataRate	OrigDataStartFrame	OrigNumFrames
100.0	100.0	6	53	mm	100.0	493	338	
Frame#	Time	right_foot_cluster2			right_foot_cluster3			sternum_cluster1			sternum_cluster2			sternum_cluster3			left_asis			right_asis			left_psis			right_psis			sacrum_cluster1			sacrum_cluster2			sacrum_cluster3			left_lat_femoral_epicondyle			left_anterior_thigh15			left_anterior_thigh25			left_anterior_thigh50			left_lateral_thigh25			left_lateral_thigh50			left_thigh_cluster1			left_thigh_cluster2			left_thigh_cluster3			left_fibular_head			left_tibial_tuberosity			left_anterior_shank30			left_lateral_malleolus			left_shank_cluster1			left_shank_cluster2			left_shank_cluster3			left_heel			left_metatarsal2			left_foot_cluster1			left_foot_cluster2			left_foot_cluster3			right_lat_femoral_epicondyle			right_anterior_thigh15			right_anterior_thigh25			right_anterior_thigh50			right_lateral_thigh25			right_lateral_thigh50			right_thigh_cluster1			right_thigh_cluster2			right_thigh_cluster3			right_fibular_head			right_tibial_tuberosity			right_lateral_distal_shank			right_anterior_shank30			right_lateral_malleolus			right_shank_cluster1			right_shank_cluster2			right_shank_cluster3			right_heel			right_metatarsal2			right_foot_cluster1			
		X1	Y1	Z1	X2	Y2	Z2	X3	Y3	Z3	X4	Y4	Z4	X5	Y5	Z5	X6	Y6	Z6	X7	Y7	Z7	X8	Y8	Z8	X9	Y9	Z9	X10	Y10	Z10	X11	Y11	Z11	X12	Y12	Z12	X13	Y13	Z13	X14	Y14	Z14	X15	Y15	Z15	X16	Y16	Z16	X17	Y17	Z17	X18	Y18	Z18	X19	Y19	Z19	X20	Y20	Z20	X21	Y21	Z21	X22	Y22	Z22	X23	Y23	Z23	X24	Y24	Z24	X25	Y25	Z25	X26	Y26	Z26	X27	Y27	Z27	X28	Y28	Z28	X29	Y29	Z29	X30	Y30	Z30	X31	Y31	Z31	X32	Y32	Z32	X33	Y33	Z33	X34	Y34	Z34	X35	Y35	Z35	X36	Y36	Z36	X37	Y37	Z37	X38	Y38	Z38	X39	Y39	Z39	X40	Y40	Z40	X41	Y41	Z41	X42	Y42	Z42	X43	Y43	Z43	X44	Y44	Z44	X45	Y45	Z45	X46	Y46	Z46	X47	Y47	Z47	X48	Y48	Z48	X49	Y49	Z49	X50	Y50	Z50	X51	Y51	Z51	X52	Y52	Z52	X53	Y53	Z53	
493	4.92	-830.84766	127.38955	-284.62015	-831.29321	127.80569	-322.63065	-496.97336	1412.8875	-240.29509	-510.60318	1385.9221	-232.91052	-505.08179	1388.5527	-270.2095	-498.66672	1034.3444	-109.86872	-493.47314	1043.6392	-361.42343	-330.73999	1051.8105	-160.99138	-325.88129	1048.1071	-278.60022	-316.78308	1105.438	-227.22096	-311.09909	1079.7285	-238.1768	-310.14301	1075.3818	-198.63828	-300.17581	535.35858	-84.357925	-422.05368	576.21295	-128.00679	-466.88351	655.53986	-110.59623	-503.36545	793.59552	-93.311813	-346.22299	680.11035	-66.32914	-395.98972	818.33655	-41.220425	-377.75446	775.9231	-35.889511	-367.9588	748.6037	-38.050049	-405.09836	748.25323	-32.387325	-268.23239	461.00693	-75.193642				-153.72374	223.83919	-140.88802	-48.075233	155.28773	-112.79271	-282.07327	375.15915	-157.2924	-269.85233	349.91882	-148.28761	-258.92145	357.19342	-184.44179	35.928692	161.03963	-150.14806	-152.50882	50.664688	-148.14647	-127.55212	121.98963	-141.74834	-138.68808	94.850342	-131.97876	-146.02798	98.342911	-169.54175	-613.55792	523.81403	-364.50003	-659.58014	637.90143	-312.43961	-642.85956	715.26093	-312.69232	-592.17151	830.59216	-322.4296	-553.78119	669.38171	-394.94177	-495.94504	805.0152	-424.33319	-508.47983	752.77325	-428.74966	-529.28888	732.79205	-424.5553	-494.80759	717.24457	-417.85193	-624.1554	457.23895	-366.08762	-680.59174	466.36011	-321.69495	-687.70801	195.53831	-348.77432	-730.23035	223.12041	-305.37665	-722.58502	94.743042	-335.29288	-688.37433	400.76788	-266.39517	-690.99969	373.34738	-258.49341	-714.1955	377.86066	-287.55734	-658.39941	51.96751	-296.79373	-868.28162	103.74293	-292.75839	-805.02448	136.0209	-294.24609
494	4.93	-837.51685	120.74302	-283.2366	-838.2309	121.29259	-321.19077	-511.8078	1413.156	-241.75215	-525.52618	1386.2458	-234.30754	-520.18243	1388.8535	-271.64148	-514.57013	1034.2416	-111.22457	-510.90347	1043.9287	-362.48837	-346.81735	1050.9237	-163.2458	-342.50162	1047.8785	-280.76361	-333.33142	1104.8633	-229.28615	-327.73468	1079.0416	-240.54971	-326.53302	1074.8566	-200.93793	-322.75809	532.92023	-85.04895	-444.65109	573.73663	-128.56248	-487.72263	654.93378	-111.27167	-521.44159	793.59338	-94.707916	-366.33881	677.91168	-67.762054	-414.08939	816.7995	-43.008213	-396.56134	774.41785	-37.926338	-386.86032	746.92548	-39.915928	-423.98285	747.08997	-33.993778	-289.48959	459.54282	-75.386726				-167.21236	226.44031	-140.75858	-59.42992	161.76163	-112.83714				-286.73294	347.12439	-148.95621	-277.30603	355.58762	-184.0482	23.324247	173.22491	-151.33037	-156.0799	49.776676	-148.12575	-137.26871	122.27357	-141.41435	-145.96968	94.014656	-131.80542	-153.70384	96.959648	-169.43628	-628.84607	523.60223	-365.63168	-675.94934	637.7652	-313.12897	-660.09949	715.56635	-313.802	-609.82581	831.51343	-323.74802	-568.75586	669.41217	-394.81674	-512.39386	804.97528	-424.89789	-524.4801	753.10596	-428.81766	-545.45233	733.00623	-424.78262	-510.67389	717.68671	-417.98502	-639.71112	457.11346	-367.22653	-695.95807	465.40909	-322.89035	-697.07819	193.83731	-348.2175	-740.15576	220.63232	-304.43445	-728.17188	92.983109	-335.07098	-702.53687	399.69641	-266.92883	-704.3609	372.10944	-259.0784	-727.30804	375.00385	-288.87155	-661.45386	53.571251	-296.71677	-873.91968	95.205574	-291.28238	-811.96777	130.4404	-292.6781
495	4.94	-842.38702	115.18089	-282.55649	-843.12817	116.13033	-320.38022	-526.65399	1413.6161	-243.20534	-540.48163	1386.79	-235.65997	-535.31531	1389.3429	-273.00153	-530.37573	1034.4868	-112.59821	-528.1156	1044.6702	-363.59378	-362.79871	1050.3667	-165.05058	-359.05728	1047.9294	-282.91342	-349.58884	1104.584	-231.11208	-344.08582	1078.5983	-242.17108	-342.68518	1074.6017	-203.2373	-346.62067	530.40741	-85.005493	-469.54657	572.21002	-128.24854	-509.82135	654.44299	-111.64217	-540.07446	793.90594	-96.277321	-387.26614	675.46503	-69.233513	-432.69031	815.22528	-44.836533	-415.30801	772.77411	-40.581131	-406.58878	745.23352	-41.453564	-443.62262	745.98755	-35.446423	-312.00323	458.11401	-75.035355				-182.25343	229.23203	-140.30516	-72.48056	168.42746	-113.16958				-307.70309	346.34042	-146.96318	-298.01941	353.79633	-183.35663	7.9222918	186.52032	-152.90813	-160.12224	49.219284	-148.11533	-148.21983	122.07718	-141.5238	-153.93028	92.876419	-132.01138	-162.19379	95.31945	-169.34816	-644.40027	523.69415	-366.68674	-691.78113	637.26855	-313.35623	-676.51312	715.73529	-314.78519	-627.71582	832.49274	-325.32117	-583.78558	669.39209	-394.80762	-529.42621	805.49231	-425.61774	-540.83044	753.74957	-429.42743	-561.29248	733.43323	-425.33548	-526.87866	718.45917	-418.65622	-654.92676	457.27634	-368.38089	-710.94385	464.63379	-323.4158	-706.11194	192.69945	-348.27383	-749.052	218.29839	-303.79776	-732.11383	91.853958	-334.72061	-716.17804	398.37067	-267.13116	-717.12372	370.66739	-259.39563	-740.18317	373.0636	-289.06625	-663.4054	55.144047	-296.26144	-878.14642	88.324028	-290.7388	-817.33002	126.00529	-292.0351
496	4.95	-845.89423	111.42017	-281.6474	-846.44324	112.42939	-319.51303	-541.44849	1414.2399	-244.59062	-555.35114	1387.4944	-236.91814	-550.41449	1389.9816	-274.34665	-545.89459	1034.8644	-114.12157	-544.87	1045.4207	-364.89957	-378.40829	1049.9265	-166.84929	-375.4404	1048.2675	-284.95233	-365.47879	1104.5118	-232.82817	-360.92426	1077.1068	-244.09424	-358.71103	1074.2029	-204.97011	-371.57803	527.81128	-84.403915	-494.91571	570.63257	-126.79507	-532.73853	654.11053	-111.38068	-559.09222	794.50458	-97.905365	-409.15381	672.81799	-70.066528	-451.76074	813.72882	-46.573936	-435.61237	771.21844	-41.582729	-426.97687	743.43011	-42.923374	-463.85876	744.87164	-36.77652	-335.41638	456.61588	-74.370247				-199.09894	232.14713	-139.65503	-87.528397	175.3409	-113.51173							-320.31854	351.86191	-181.92503	-10.298862	200.80565	-154.74728	-164.47247	49.062149	-148.28476	-159.51935	121.32298	-141.33644	-162.79016	92.149284	-131.90161	-171.386	93.844582	-169.18005	-659.97498	524.34143	-367.76239	-707.31726	636.88098	-313.75943	-692.60059	716.03436	-315.59457	-645.38501	833.46692	-327.10159	-599.66077	669.9361	-395.31702	-546.23596	806.58478	-426.56854	-557.52728	754.61829	-430.71127	-578.20734	734.20349	-426.73557	-543.28772	719.48981	-419.94098	-670.37286	457.95178	-369.63843	-725.56158	464.13733	-323.23959	-713.76831	191.52766	-348.15561	-756.69293	216.16716	-302.94455	-735.10138	91.297493	-334.45166	-728.8313	397.14493	-267.14261	-728.71606	369.36243	-259.44147	-752.2041	371.19995	-288.92941	-664.85895	56.081905	-296.10587	-880.99036	83.217438	-290.13168	-820.72498	122.57903	-291.29935
497	4.96	-847.9873	108.67285	-280.35315	-848.5473	110.1012	-318.267	-556.23163	1415.033	-245.85941	-570.13007	1388.3008	-238.12225	-565.41437	1390.7531	-275.56848	-561.12976	1035.3011	-115.73225	-561.47589	1047.2307	-365.99777	-393.90555	1049.2994	-168.8298	-391.32922	1048.8177	-286.9248	-380.935	1104.5812	-234.35248	-376.24136	1078.589	-245.97472	-374.14374	1073.5992	-206.51286	-397.25684	525.15344	-83.284103	-520.5451	569.21906	-124.1018	-555.96875	654.01147	-110.36884	-578.28052	795.32587	-99.398621	-431.7287	670.20947	-70.348083	-471.00626	812.10669	-48.259335	-455.71021	769.53113	-43.080181	-447.55765	741.46655	-44.293434	-484.53845	743.771	-37.883835	-359.66095	455.31543	-73.414207				-217.29216	235.29832	-138.68361	-104.1104	182.89317	-113.80978							-343.88342	349.20065	-179.50282	-31.129248	215.92935	-156.40472	-169.7765	49.621346	-148.1895	-171.97444	122.10221	-140.67278	-172.15932	92.719139	-131.3571	-181.12831	93.504379	-168.76642	-675.31281	525.44727	-368.81604	-722.82709	637.78198	-313.71674	-708.41559	716.63812	-316.31049	-662.25513	834.64972	-328.79294	-616.4425	671.57837	-397.11023	-563.4162	808.35724	-428.53928	-574.95331	756.20496	-432.82376	-594.93872	735.5932	-428.29697	-560.1806	721.10077	-422.21896	-686.5863	459.09988	-371.49249	-739.44702	463.81293	-322.78763	-721.37109	191.13901	-348.31104	-763.25732	214.39645	-301.81894	-737.4303	91.119453	-334.12653	-740.01276	396.18445	-266.9924	-738.99103	368.39575	-259.40961	-762.87769	369.57297	-288.45953	-665.57977	56.466255	-296.07999	-882.65344	79.508736	-289.12543	-823.04657	120.41965	-289.9097
498	4.97	-849.02893	106.4687	-279.54114	-849.7937	108.31915	-317.35217	-570.84821	1415.8564	-247.05986	-584.80768	1389.209	-239.18364	-580.33319	1391.6532	-276.66534	-576.11542	1035.8221	-117.26579	-577.51587	1048.8835	-367.26303	-409.28824	1048.6979	-170.42706	-406.86566	1049.5354	-288.40753	-396.17621	1104.6976	-235.53784	-391.11774	1079.4668	-247.42477	-389.46103	1073.7545	-208.07103	-422.72009	522.09662	-82.752731	-545.96082	568.10602	-120.54567	-579.13422	654.19916	-108.79026	-597.39667	796.32758	-100.76825	-454.65015	667.61084	-69.725914	-490.18652	810.43048	-49.817581	-475.93161	767.77869	-44.169724	-468.37408	739.45685	-45.355495	-505.24973	742.83478	-38.696407	-384.784	454.25146	-72.210533				-236.55959	238.76476	-137.46199	-121.95972	191.12981	-114.01002							-368.52695	346.58984	-176.67726	-54.019009	231.16837	-158.00597	-176.22751	51.39502	-147.82132	-185.05595	124.48592	-139.44922	-182.07103	95.031998	-130.4149	-192.01212	95.236877	-167.63977	-691.013	526.83197	-370.09439	-738.15973	639.13055	-313.34424	-723.77112	717.84888	-316.78635	-678.07123	836.2041	-330.16159	-633.62628	673.71326	-399.61786	-580.12262	810.63965	-430.68146	-592.09241	758.48718	-435.12506	-612.1756	737.88086	-430.58704	-577.0033	723.33276	-425.00662	-700.78284	459.90515	-372.28983	-752.38953	463.49371	-322.51505	-726.75018	190.95778	-347.94351	-768.74792	213.123	-300.82681	-738.69244	90.892029	-333.59973	-749.82965	395.49005	-266.77859	-747.7569	367.69824	-259.29413	-772.36469	368.25494	-287.76831	-666.00775	56.656506	-296.15421	-883.56024	76.906906	-288.38348	-824.51581	118.99398	-288.70215
